<svg xmlns="http://www.w3.org/2000/svg" viewBox="0 0 48 48"><defs><style>.cls-1{fill:#0075bc;}.cls-2{fill:none;}</style></defs><title>instagram</title><g id="Layer_2" data-name="Layer 2"><g id="_03-SINGLE-COLOR" data-name=" 03-SINGLE-COLOR"><path class="cls-1" d="M30.93,12H18a5.43,5.43,0,0,0-5.43,5.43V30.31A5.43,5.43,0,0,0,18,35.75H30.93a5.43,5.43,0,0,0,5.43-5.44V17.38A5.43,5.43,0,0,0,30.93,12Zm1,12.25a7.1,7.1,0,0,1-7.1,7.11h-.71A7.11,7.11,0,0,1,17,24.2v-.71a7.1,7.1,0,0,1,7.11-7.1h.71a7.1,7.1,0,0,1,7.1,7.1ZM32.28,18a1.78,1.78,0,1,1,1.77-1.77A1.78,1.78,0,0,1,32.28,18Zm-7.73,1.07a4.89,4.89,0,1,0,4.88,4.88A4.88,4.88,0,0,0,24.55,19.05Z"/><path class="cls-1" d="M35.2,4.31H13.72a8.8,8.8,0,0,0-8.8,8.79V34.59a8.79,8.79,0,0,0,8.8,8.79H35.2A8.79,8.79,0,0,0,44,34.59V13.1A8.8,8.8,0,0,0,35.2,4.31ZM39,30.22a8.19,8.19,0,0,1-8.19,8.19H18.08A8.18,8.18,0,0,1,9.9,30.22V17.47a8.19,8.19,0,0,1,8.18-8.19H30.84A8.19,8.19,0,0,1,39,17.47Z"/><path class="cls-1" d="M30.93,12H18a5.43,5.43,0,0,0-5.43,5.43V30.31A5.43,5.43,0,0,0,18,35.75H30.93a5.43,5.43,0,0,0,5.43-5.44V17.38A5.43,5.43,0,0,0,30.93,12Zm1,12.25a7.1,7.1,0,0,1-7.1,7.11h-.71A7.11,7.11,0,0,1,17,24.2v-.71a7.1,7.1,0,0,1,7.11-7.1h.71a7.1,7.1,0,0,1,7.1,7.1ZM32.28,18a1.78,1.78,0,1,1,1.77-1.77A1.78,1.78,0,0,1,32.28,18Zm-7.73,1.07a4.89,4.89,0,1,0,4.88,4.88A4.88,4.88,0,0,0,24.55,19.05Z"/><path class="cls-1" d="M30.93,12H18a5.43,5.43,0,0,0-5.43,5.43V30.31A5.43,5.43,0,0,0,18,35.75H30.93a5.43,5.43,0,0,0,5.43-5.44V17.38A5.43,5.43,0,0,0,30.93,12Zm1,12.25a7.1,7.1,0,0,1-7.1,7.11h-.71A7.11,7.11,0,0,1,17,24.2v-.71a7.1,7.1,0,0,1,7.11-7.1h.71a7.1,7.1,0,0,1,7.1,7.1ZM32.28,18a1.78,1.78,0,1,1,1.77-1.77A1.78,1.78,0,0,1,32.28,18Zm-7.73,1.07a4.89,4.89,0,1,0,4.88,4.88A4.88,4.88,0,0,0,24.55,19.05Z"/><circle class="cls-1" cx="24.55" cy="23.93" r="4.88"/><circle class="cls-1" cx="24.55" cy="23.93" r="4.88"/><rect class="cls-2" width="48" height="48"/></g></g></svg>