<svg xmlns="http://www.w3.org/2000/svg" viewBox="0 0 48 48"><defs><style>.cls-1{fill:#0075bc;}.cls-2{fill:none;}</style></defs><title>youtube</title><g id="Layer_2" data-name="Layer 2"><g id="_03-SINGLE-COLOR" data-name=" 03-SINGLE-COLOR"><path class="cls-1" d="M44.26,22.36a35.62,35.62,0,0,0-.83-7.82L42.63,13a7.13,7.13,0,0,0-1.56-1.44h0A4.56,4.56,0,0,0,39,10.91s-1.52-.18-2.89-.29c0,0-2.15-.15-3.52-.18,0,0-4.33-.17-6.58-.17H23.2c-2.26,0-6.58.17-6.58.17-1.37,0-3.53.18-3.53.18-1.37.11-2.89.29-2.89.29a4.93,4.93,0,0,0-2.06.62l0,0h0a7.46,7.46,0,0,0-2,2h0c-.08.12-1,1.82-1.2,9.2v2.47c.17,7.68,1.2,9.22,1.2,9.22h0a7.22,7.22,0,0,0,1.63,1.77l1.76.83a6.24,6.24,0,0,0,.69.11s1.52.18,2.89.29c0,0,2.16.15,3.53.18,0,0,2.34.09,4.48.14h7c2.14,0,4.48-.14,4.48-.14,1.37,0,3.52-.18,3.52-.18,1.37-.11,2.89-.29,2.89-.29a7,7,0,0,0,.77-.12,4.4,4.4,0,0,0,1.65-.78,7.56,7.56,0,0,0,1.67-1.81h0s1-1.48,1.19-8.79ZM20.67,29.92V18.14L30.91,24Z"/><rect class="cls-2" width="48" height="48"/></g></g></svg>